# xmcd
#
# Track frame offsets:
#	150
#	22766
#	42198
#	61251
#	92981
#	109902
#	130350
#	169018
#	186144
#	205834
#
# Disc length: 3058 seconds
#
# Revision: 1
# Processed by: cddbd v1.5.1PL2 Copyright (c) Steve Scherf et al.
# Submitted via: audiograbber 1.80
#
DISCID=820bf00a
DTITLE=Steve Grahn and Mattias Malm - That's Alright
DYEAR=1900
DGENRE=
TTITLE0=Tribute to Tony Joe
TTITLE1=Hey Blues
TTITLE2=I'm Too Upset
TTITLE3=The Way I Am
TTITLE4=That's Alright
TTITLE5=Like a Rich Man
TTITLE6=Six Foot Digging
TTITLE7=Swinging Marie
TTITLE8=Dock Boogs Country Blues
TTITLE9=For So Long Time
EXTD=
EXTT0=
EXTT1=
EXTT2=
EXTT3=
EXTT4=
EXTT5=
EXTT6=
EXTT7=
EXTT8=
EXTT9=
PLAYORDER=
